<svg version="1.0" xmlns="http://www.w3.org/2000/svg"
 width="304.000000pt" height="305.000000pt" viewBox="0 0 304.000000 305.000000"
 preserveAspectRatio="xMidYMid meet">
<g transform="translate(0.000000,305.000000) scale(0.100000,-0.100000)"
>
<path d="M1400 3003 c-157 -24 -343 -134 -505 -298 -70 -71 -233 -271 -245
-300 -4 -12 -15 -27 -24 -34 -9 -7 -16 -17 -16 -22 0 -4 -13 -27 -29 -51 -33
-49 -117 -231 -168 -361 -38 -100 -85 -275 -104 -392 -21 -127 -18 -451 5
-555 86 -393 292 -671 608 -823 169 -80 274 -111 439 -128 247 -24 492 32 733
169 143 80 246 175 363 332 87 116 152 279 189 470 22 114 25 394 6 510 -30
179 -89 401 -134 500 -16 36 -38 85 -49 110 -63 140 -239 406 -315 475 -12 11
-51 53 -87 93 -58 64 -147 142 -163 142 -2 0 -30 19 -61 41 -130 96 -303 144
-443 122z m-406 -1377 c50 -12 82 -33 128 -85 106 -118 132 -280 69 -421 -31
-68 -108 -150 -170 -179 -55 -25 -61 -26 -261 -26 l-205 0 -3 350 c-1 192 0
356 3 363 4 11 45 13 207 9 112 -2 216 -7 232 -11z m746 -56 l0 -69 -137 -3
-138 -3 0 -65 0 -65 133 -3 132 -3 0 -69 0 -69 -132 -3 -133 -3 0 -70 0 -70
140 -5 140 -5 3 -77 3 -78 -236 0 -235 0 0 365 0 365 230 0 230 0 0 -70z m257
33 c9 -21 44 -105 77 -186 34 -82 65 -150 69 -150 4 -1 32 52 61 118 29 66 58
129 64 140 6 11 16 39 22 63 6 24 17 45 24 48 7 3 53 3 103 2 l91 -3 -64 -145
c-36 -79 -75 -167 -88 -195 -13 -27 -25 -54 -27 -60 -2 -5 -24 -48 -48 -95
-25 -47 -46 -93 -48 -103 -2 -10 -14 -43 -27 -75 -20 -48 -29 -58 -52 -60 -43
-6 -69 15 -90 71 -10 29 -19 57 -19 63 0 6 -5 18 -11 25 -6 8 -19 38 -28 67
-9 29 -35 88 -56 131 -22 44 -40 82 -40 85 0 9 -81 199 -90 211 -4 6 -10 19
-12 30 -3 11 -9 28 -13 38 -7 15 1 17 89 17 l97 0 16 -37z"/>
<path d="M745 1468 c-3 -7 -4 -99 -3 -203 l3 -190 94 2 c88 3 97 5 124 30 33
33 67 102 74 153 8 58 -14 118 -62 169 l-44 46 -90 3 c-71 3 -92 1 -96 -10z"/>
</g>
</svg>
