<svg xmlns="http://www.w3.org/2000/svg" width="39.61" height="35.649" viewBox="0 0 39.61 35.649"><path d="M39.212,9.249l-4.7-3.624a3.955,3.955,0,0,0-1.032-.469,4.03,4.03,0,0,0-1.123-.194H18.815l1.586,9.9H32.353a4.007,4.007,0,0,0,1.121-.194,4.056,4.056,0,0,0,1.032-.467l4.7-3.628a.749.749,0,0,0,0-1.325ZM16.834,1H14.854a.99.99,0,0,0-.99.99V8.922H7.257a3.933,3.933,0,0,0-1.123.2A3.833,3.833,0,0,0,5.1,9.585L.4,13.21a.752.752,0,0,0,0,1.327l4.7,3.628a3.958,3.958,0,0,0,1.032.465,4,4,0,0,0,1.123.194h6.607V35.659a.99.99,0,0,0,.99.99h1.981a.99.99,0,0,0,.99-.99V1.99A.99.99,0,0,0,16.834,1Z" transform="translate(0 -1)" fill="#0046af"/></svg>