<svg xmlns="http://www.w3.org/2000/svg" xmlns:xlink="http://www.w3.org/1999/xlink" width="1620" height="872" viewBox="0 0 1620 872"><defs><clipPath id="a"><rect width="1620" height="872" transform="translate(140 190)" fill="none" stroke="#91bdff" stroke-width="3"/></clipPath><clipPath id="b"><rect width="1547" height="665" fill="none"/></clipPath></defs><g transform="translate(-140 -190)" clip-path="url(#a)"><g transform="translate(-1 37)"><g transform="translate(178 190)" fill="none" stroke="#91bdff" stroke-width="4"><rect width="1547" height="218" stroke="none"/><rect x="2" y="2" width="1543" height="214" fill="none"/></g><text transform="translate(223 256)" fill="#fff" font-size="42" font-family="SegoeUI-Bold, Segoe UI" font-weight="700"><tspan x="0" y="0">Ivan</tspan><tspan y="0" xml:space="preserve" font-family="SegoeUI, Segoe UI" font-weight="400"> Ivanov, 21</tspan></text><rect width="272" height="56" rx="28" transform="translate(1090 211)" fill="#fff"/><text transform="translate(1187 253)" fill="#91bdff" font-size="42" font-family="SegoeUI, Segoe UI"><tspan x="0" y="0">Java</tspan></text><text transform="translate(1530 249)" fill="#fff" font-size="35" font-family="SegoeUI, Segoe UI"><tspan x="0" y="0">21.01.2017</tspan></text><g transform="translate(218 309)"><rect width="297" height="76" fill="#91bdff"/><g transform="translate(-0.126)"><text transform="translate(102 49)" fill="#fff" font-size="35" font-family="SegoeUI, Segoe UI"><tspan x="0" y="0">Progress</tspan></text><g transform="translate(60 21)"><path d="M6.6,7814.6h3.9a1.3,1.3,0,0,0,1.3-1.3v-3.9a2.6,2.6,0,0,1,2.6-2.6h5.2v-5.2a2.6,2.6,0,0,1,2.6-2.6h5.2a2.6,2.6,0,0,1,2.6,2.6v20.806a2.6,2.6,0,0,1-2.6,2.6H6.6a2.6,2.6,0,0,1-2.6-2.6v-5.2A2.6,2.6,0,0,1,6.6,7814.6Z" transform="translate(-0.874 -7795.874)" fill="#fff" fill-rule="evenodd"/></g></g></g><g transform="translate(837.692 -1)"><rect width="126" height="76" transform="translate(575.308 310)" fill="#72bf7e"/><text transform="translate(608.308 359)" fill="#fff" font-size="35" font-family="SegoeUI, Segoe UI"><tspan x="0" y="0">Edit</tspan></text></g><g transform="translate(534.943 309)"><rect width="297" height="76" transform="translate(0.057)" fill="#91bdff"/><g transform="translate(22.362)"><text transform="translate(106.057 49)" fill="#fff" font-size="35" font-family="SegoeUI, Segoe UI"><tspan x="0" y="0">Tasks</tspan></text><g transform="translate(62.357 16.3)"><g transform="translate(4.338 2.892)"><path d="M19.567,4.892H16.675a2.892,2.892,0,1,0-5.783,0H8V9.229H19.567Z" transform="translate(-0.771 -2)" fill="#fff"/><path d="M-577.5-339.167h-20.242a2.9,2.9,0,0,1-2.892-2.892V-362.3a2.9,2.9,0,0,1,2.892-2.891h1.445v4.337h17.35v-4.337h1.446a2.9,2.9,0,0,1,2.892,2.891v20.242A2.9,2.9,0,0,1-577.5-339.167ZM-593.165-351.8h-.021a.3.3,0,0,0-.22.121l-1.808,2.41a.3.3,0,0,0,.033.4l6.025,5.725a.3.3,0,0,0,.207.082.3.3,0,0,0,.207-.082l10.243-9.641a.3.3,0,0,0,.033-.4l-1.808-2.41a.3.3,0,0,0-.213-.12h-.022a.3.3,0,0,0-.21.085l-8.228,7.93-4-4.01A.307.307,0,0,0-593.165-351.8Z" transform="translate(600.638 369.529)" fill="#fff"/></g></g></g></g><g transform="translate(298.308 -1)"><rect width="126" height="76" transform="translate(1260.692 310)" fill="#ff9191"/><text transform="translate(1270.692 359)" fill="#fff" font-size="35" font-family="SegoeUI, Segoe UI"><tspan x="0" y="0">Delete</tspan></text></g></g><g transform="translate(177 465)" clip-path="url(#b)"><g transform="translate(-178 -190)"><rect width="1547" height="98" transform="translate(178 190)" fill="#c6ddff"/><text transform="translate(223 256)" fill="#0046af" font-size="42" font-family="SegoeUI-Bold, Segoe UI" font-weight="700"><tspan x="0" y="0">Nurmugamet</tspan><tspan y="0" xml:space="preserve" font-family="SegoeUI, Segoe UI" font-weight="400"> Mkartetchan, 50</tspan></text><rect width="279" height="56" rx="28" transform="translate(1147 209)" fill="rgba(0,70,175,0.61)"/><text transform="translate(1530 249)" fill="#0046af" font-size="35" font-family="SegoeUI, Segoe UI"><tspan x="0" y="0">21.01.2017</tspan></text><text transform="translate(1193 206)" fill="#fff" font-size="42" font-family="SegoeUI, Segoe UI"><tspan x="0.32" y="45">Salesforce</tspan></text><path d="M25.748,15.042l5.515-7.731a1.2,1.2,0,0,0-.975-1.9H7.408V4.2A1.2,1.2,0,1,0,5,4.2V33.1a1.2,1.2,0,1,0,2.408,0V24.675h22.88a1.2,1.2,0,0,0,.975-1.9Z" transform="translate(1480.509 220.691)" fill="#0046af"/></g><g transform="translate(-178 -72)"><rect width="1547" height="98" transform="translate(178 190)" fill="#c6ddff"/><text transform="translate(223 256)" fill="#0046af" font-size="42" font-family="SegoeUI-Bold, Segoe UI" font-weight="700"><tspan x="0" y="0">Vasiliy </tspan><tspan y="0" font-family="SegoeUI, Segoe UI" font-weight="400">Vasiliev</tspan><tspan y="0">,</tspan><tspan y="0" xml:space="preserve" font-family="SegoeUI, Segoe UI" font-weight="400"> 21</tspan></text><rect width="279" height="56" rx="28" transform="translate(1147 209)" fill="rgba(0,70,175,0.61)"/><text transform="translate(1530 249)" fill="#0046af" font-size="35" font-family="SegoeUI, Segoe UI"><tspan x="0" y="0">21.01.2017</tspan></text><text transform="translate(1193 206)" fill="#fff" font-size="42" font-family="SegoeUI, Segoe UI"><tspan x="55.64" y="45">.Net</tspan></text><path d="M25.748,15.042l5.515-7.731a1.2,1.2,0,0,0-.975-1.9H7.408V4.2A1.2,1.2,0,1,0,5,4.2V33.1a1.2,1.2,0,1,0,2.408,0V24.675h22.88a1.2,1.2,0,0,0,.975-1.9Z" transform="translate(1480.509 220.691)" fill="#0046af"/></g><g transform="translate(-178 46)"><rect width="1547" height="98" transform="translate(178 190)" fill="#c6ddff"/><text transform="translate(223 256)" fill="#0046af" font-size="42" font-family="SegoeUI-Bold, Segoe UI" font-weight="700"><tspan x="0" y="0">Klim</tspan><tspan y="0" xml:space="preserve" font-family="SegoeUI, Segoe UI" font-weight="400"> Frolov, 23</tspan></text><rect width="279" height="56" rx="28" transform="translate(1147 209)" fill="rgba(0,70,175,0.61)"/><text transform="translate(1530 249)" fill="#0046af" font-size="35" font-family="SegoeUI, Segoe UI"><tspan x="0" y="0">21.01.2017</tspan></text><text transform="translate(1193 206)" fill="#fff" font-size="42" font-family="SegoeUI, Segoe UI"><tspan x="9.908" y="45">Frontend</tspan></text><path d="M25.748,15.042l5.515-7.731a1.2,1.2,0,0,0-.975-1.9H7.408V4.2A1.2,1.2,0,1,0,5,4.2V33.1a1.2,1.2,0,1,0,2.408,0V24.675h22.88a1.2,1.2,0,0,0,.975-1.9Z" transform="translate(1480.509 220.691)" fill="#0046af"/></g><g transform="translate(-178 164)"><rect width="1547" height="98" transform="translate(178 190)" fill="#c6ddff"/><text transform="translate(223 256)" fill="#0046af" font-size="42" font-family="SegoeUI-Bold, Segoe UI" font-weight="700"><tspan x="0" y="0">Ignat</tspan><tspan y="0" xml:space="preserve" font-family="SegoeUI, Segoe UI" font-weight="400"> Domeyko, 41</tspan></text><rect width="279" height="56" rx="28" transform="translate(1147 209)" fill="rgba(0,70,175,0.61)"/><text transform="translate(1530 249)" fill="#0046af" font-size="35" font-family="SegoeUI, Segoe UI"><tspan x="0" y="0">21.01.2017</tspan></text><text transform="translate(1193 206)" fill="#fff" font-size="42" font-family="SegoeUI, Segoe UI"><tspan x="55.076" y="45">Java</tspan></text><path d="M25.748,15.042l5.515-7.731a1.2,1.2,0,0,0-.975-1.9H7.408V4.2A1.2,1.2,0,1,0,5,4.2V33.1a1.2,1.2,0,1,0,2.408,0V24.675h22.88a1.2,1.2,0,0,0,.975-1.9Z" transform="translate(1480.509 220.691)" fill="#0046af"/></g><g transform="translate(-178 282)"><rect width="1547" height="98" transform="translate(178 190)" fill="#c6ddff"/><text transform="translate(223 256)" fill="#0046af" font-size="42" font-family="SegoeUI-Bold, Segoe UI" font-weight="700"><tspan x="0" y="0">Han</tspan><tspan y="0" xml:space="preserve" font-family="SegoeUI, Segoe UI" font-weight="400"> Young, 19</tspan></text><rect width="279" height="56" rx="28" transform="translate(1147 209)" fill="rgba(0,70,175,0.61)"/><text transform="translate(1530 249)" fill="#0046af" font-size="35" font-family="SegoeUI, Segoe UI"><tspan x="0" y="0">21.01.2017</tspan></text><text transform="translate(1193 206)" fill="#fff" font-size="42" font-family="SegoeUI, Segoe UI"><tspan x="55.64" y="45">.Net</tspan></text><path d="M25.748,15.042l5.515-7.731a1.2,1.2,0,0,0-.975-1.9H7.408V4.2A1.2,1.2,0,1,0,5,4.2V33.1a1.2,1.2,0,1,0,2.408,0V24.675h22.88a1.2,1.2,0,0,0,.975-1.9Z" transform="translate(1480.509 220.691)" fill="#0046af"/></g><g transform="translate(-178 400)"><rect width="1547" height="98" transform="translate(178 190)" fill="#c6ddff"/><text transform="translate(223 256)" fill="#0046af" font-size="42" font-family="SegoeUI-Bold, Segoe UI" font-weight="700"><tspan x="0" y="0">Ivan</tspan><tspan y="0" xml:space="preserve" font-family="SegoeUI, Segoe UI" font-weight="400"> Ivanov, 21</tspan></text><rect width="279" height="56" rx="28" transform="translate(1147 209)" fill="rgba(0,70,175,0.61)"/><text transform="translate(1530 249)" fill="#0046af" font-size="35" font-family="SegoeUI, Segoe UI"><tspan x="0" y="0">21.01.2017</tspan></text><text transform="translate(1193 206)" fill="#fff" font-size="42" font-family="SegoeUI, Segoe UI"><tspan x="0.32" y="45">Salesforce</tspan></text><path d="M25.748,15.042l5.515-7.731a1.2,1.2,0,0,0-.975-1.9H7.408V4.2A1.2,1.2,0,1,0,5,4.2V33.1a1.2,1.2,0,1,0,2.408,0V24.675h22.88a1.2,1.2,0,0,0,.975-1.9Z" transform="translate(1480.509 220.691)" fill="#0046af"/></g></g><g transform="translate(140 190)" fill="none" stroke="#91bdff" stroke-width="7"><rect width="1620" height="872" stroke="none"/><rect x="3.5" y="3.5" width="1613" height="865" fill="none"/></g></g></svg>