<svg xmlns="http://www.w3.org/2000/svg" width="26.025" height="30.362" viewBox="0 0 26.025 30.362"><path d="M-620.108-320.829A2.9,2.9,0,0,1-623-323.721v-20.242a2.894,2.894,0,0,1,2.892-2.891h1.445v4.337h17.35v-4.337h1.446a2.894,2.894,0,0,1,2.892,2.891v20.242a2.9,2.9,0,0,1-2.892,2.892Zm4.559-12.637a.3.3,0,0,0-.22.121l-1.808,2.41a.3.3,0,0,0,.033.4l6.025,5.725a.3.3,0,0,0,.206.082.3.3,0,0,0,.207-.082l10.243-9.641a.3.3,0,0,0,.033-.4l-1.808-2.41a.3.3,0,0,0-.213-.12h-.022a.3.3,0,0,0-.21.085l-8.228,7.93-4-4.01a.308.308,0,0,0-.213-.088Zm-.222-10.5V-348.3h2.892a2.892,2.892,0,0,1,2.892-2.892A2.892,2.892,0,0,1-607.1-348.3h2.892v4.337Z" transform="translate(623 351.192)" fill="#fff"/></svg>