<svg xmlns="http://www.w3.org/2000/svg" width="28.025" height="31.89" viewBox="0 0 28.025 31.89"><path d="M24.911,31.89H3.114A3.08,3.08,0,0,1,0,28.852V7.592A3.08,3.08,0,0,1,3.114,4.556H4.671V9.112H23.354V4.556h1.557a3.08,3.08,0,0,1,3.114,3.037v21.26A3.08,3.08,0,0,1,24.911,31.89ZM8.13,13.5a.607.607,0,0,0-.621.59v14.17a.621.621,0,0,0,1.241,0V24.129H20.54a.624.624,0,0,0,.55-.32.565.565,0,0,0-.047-.612L18.2,19.406l2.842-3.791A.565.565,0,0,0,21.09,15a.624.624,0,0,0-.55-.32H8.75v-.59A.606.606,0,0,0,8.13,13.5ZM20.24,7.592H7.785V3.037H10.9a3.115,3.115,0,0,1,6.227,0H20.24V7.591Z" fill="#0046af"/></svg>